<svg width="18" height="20" viewBox="0 0 18 20" fill="none" xmlns="http://www.w3.org/2000/svg">
<path d="M15.7328 17.4993C14.9028 18.7393 14.0228 19.9493 12.6828 19.9693C11.3428 19.9993 10.9128 19.1793 9.3928 19.1793C7.8628 19.1793 7.3928 19.9493 6.1228 19.9993C4.8128 20.0493 3.8228 18.6793 2.9828 17.4693C1.2728 14.9993 -0.037203 10.4493 1.7228 7.38933C2.5928 5.86933 4.1528 4.90933 5.8428 4.87933C7.1228 4.85933 8.3428 5.74933 9.1328 5.74933C9.9128 5.74933 11.3928 4.67933 12.9428 4.83933C13.5928 4.86933 15.4128 5.09933 16.5828 6.81933C16.4928 6.87933 14.4128 8.09933 14.4328 10.6293C14.4628 13.6493 17.0828 14.6593 17.1128 14.6693C17.0828 14.7393 16.6928 16.1093 15.7328 17.4993ZM10.0228 1.49933C10.7528 0.669329 11.9628 0.0393286 12.9628 -0.000671387C13.0928 1.16933 12.6228 2.34933 11.9228 3.18933C11.2328 4.03933 10.0928 4.69933 8.9728 4.60933C8.8228 3.45933 9.3828 2.25933 10.0228 1.49933Z" fill="white"/>
</svg>
