<svg width="17" height="18" viewBox="0 0 17 18" fill="none" xmlns="http://www.w3.org/2000/svg">
<path d="M0.375 1.32382V16.6754C0.375103 16.7087 0.385037 16.7412 0.403556 16.7689C0.422075 16.7966 0.448355 16.8182 0.479101 16.831C0.509846 16.8438 0.543689 16.8473 0.576384 16.8409C0.60908 16.8346 0.639173 16.8187 0.662891 16.7953L8.65625 9L0.662891 1.2039C0.639173 1.18052 0.60908 1.16466 0.576384 1.15831C0.543689 1.15196 0.509846 1.1554 0.479101 1.16821C0.448355 1.18102 0.422075 1.20262 0.403556 1.2303C0.385037 1.25798 0.375103 1.29052 0.375 1.32382ZM12.0078 5.79687L1.98516 0.274994L1.97891 0.271479C1.80625 0.177729 1.64219 0.411323 1.78359 0.54726L9.64023 8.05976L12.0078 5.79687ZM1.78438 17.4527C1.64219 17.5887 1.80625 17.8223 1.97969 17.7285L1.98594 17.725L12.0078 12.2031L9.64023 9.93945L1.78438 17.4527ZM16.0539 8.02343L13.2551 6.48203L10.6234 9L13.2551 11.5168L16.0539 9.97656C16.8152 9.55585 16.8152 8.44414 16.0539 8.02343Z" fill="white"/>
</svg>
